<?xml version="1.0" encoding="UTF-8" standalone="no"?>
<!DOCTYPE svg PUBLIC "-//W3C//DTD SVG 1.1//EN" "http://www.w3.org/Graphics/SVG/1.1/DTD/svg11.dtd">
<svg width="100%" height="100%" viewBox="0 0 32 32" version="1.1" xmlns="http://www.w3.org/2000/svg" xmlns:xlink="http://www.w3.org/1999/xlink" xml:space="preserve" xmlns:serif="http://www.serif.com/" style="fill-rule:evenodd;clip-rule:evenodd;stroke-linecap:round;stroke-linejoin:round;stroke-miterlimit:10;">
    <g transform="matrix(0.952952,0,0,0.952952,0.0598802,0.785847)">
        <g transform="matrix(1.69065,0,0,1.69065,-3.6237,-4.32255)">
            <path d="M5,4C5,3.448 5.448,3 6,3L20,3C20.552,3 21,3.448 21,4L21,20C21,20.552 20.552,21 20,21L6,21C5.448,21 5,20.552 5,20L5,4Z" style="fill:none;fill-rule:nonzero;stroke:url(#_Linear1);stroke-width:1.5px;"/>
        </g>
        <g transform="matrix(1.69065,0,0,1.69065,-3.6237,-4.32255)">
            <path d="M5,10L3,10" style="fill:none;fill-rule:nonzero;stroke:rgb(177,254,100);stroke-width:1.5px;"/>
        </g>
        <g transform="matrix(1.69065,0,0,1.69065,-3.6237,-4.32255)">
            <path d="M5,6L3,6" style="fill:none;fill-rule:nonzero;stroke:rgb(177,254,100);stroke-width:1.5px;"/>
        </g>
        <g transform="matrix(1.69065,0,0,1.69065,-3.6237,-4.32255)">
            <path d="M5,14L3,14" style="fill:none;fill-rule:nonzero;stroke:rgb(177,254,100);stroke-width:1.5px;"/>
        </g>
        <g transform="matrix(1.69065,0,0,1.69065,-3.6237,-4.32255)">
            <path d="M5,18L3,18" style="fill:none;fill-rule:nonzero;stroke:rgb(177,254,100);stroke-width:1.5px;"/>
        </g>
        <g transform="matrix(-1.24566,-1.5255e-16,1.5255e-16,-1.24566,38.2854,35.8959)">
            <path d="M13.733,10.987C13.905,11.172 14,11.415 14,11.667C14,11.945 13.884,12.211 13.68,12.4L9.803,16L13.68,19.6C13.884,19.789 14,20.055 14,20.333C14,20.882 13.549,21.333 13,21.333C12.748,21.333 12.505,21.238 12.32,21.067L7.653,16.733C7.449,16.544 7.333,16.278 7.333,16C7.333,15.722 7.449,15.456 7.653,15.267L12.32,10.933C12.505,10.762 12.748,10.667 13,10.667C13.278,10.667 13.544,10.783 13.733,10.987ZM18.32,12.4C18.116,12.211 18,11.945 18,11.667C18,11.118 18.451,10.667 19,10.667C19.252,10.667 19.495,10.762 19.68,10.933L24.347,15.267C24.551,15.456 24.667,15.722 24.667,16C24.667,16.278 24.551,16.544 24.347,16.733L19.68,21.067C19.495,21.238 19.252,21.333 19,21.333C18.451,21.333 18,20.882 18,20.333C18,20.055 18.116,19.789 18.32,19.6L22.197,16L18.32,12.4Z" style="fill:url(#_Linear2);fill-rule:nonzero;"/>
        </g>
    </g>
    <defs>
        <linearGradient id="_Linear1" x1="0" y1="0" x2="1" y2="0" gradientUnits="userSpaceOnUse" gradientTransform="matrix(16,0,0,18,5,12)"><stop offset="0" style="stop-color:rgb(177,254,100);stop-opacity:1"/><stop offset="1" style="stop-color:rgb(36,199,91);stop-opacity:1"/></linearGradient>
        <linearGradient id="_Linear2" x1="0" y1="0" x2="1" y2="0" gradientUnits="userSpaceOnUse" gradientTransform="matrix(17.3336,0,0,10.6669,7.3332,16)"><stop offset="0" style="stop-color:rgb(177,254,100);stop-opacity:1"/><stop offset="1" style="stop-color:rgb(36,199,91);stop-opacity:1"/></linearGradient>
    </defs>
</svg>
